<svg width="127" height="22" viewBox="0 0 127 22" fill="none" xmlns="http://www.w3.org/2000/svg">
<path d="M6.92494 18.288C5.64494 18.288 4.51694 18.084 3.54094 17.676C2.57294 17.268 1.81294 16.66 1.26094 15.852C0.716938 15.036 0.444938 14.024 0.444938 12.816C0.444938 12.688 0.444938 12.572 0.444938 12.468C0.444938 12.356 0.444938 12.236 0.444938 12.108H4.17694C4.17694 12.228 4.17694 12.336 4.17694 12.432C4.17694 12.52 4.17694 12.624 4.17694 12.744C4.17694 13.568 4.40894 14.2 4.87294 14.64C5.33694 15.08 6.02494 15.3 6.93694 15.3C7.85694 15.3 8.56494 15.156 9.06094 14.868C9.55694 14.572 9.80494 14.088 9.80494 13.416C9.80494 12.944 9.61694 12.528 9.24094 12.168C8.87294 11.808 8.36894 11.488 7.72894 11.208C7.09694 10.92 6.37294 10.652 5.55694 10.404C4.66894 10.124 3.84494 9.756 3.08494 9.3C2.32494 8.844 1.71294 8.264 1.24894 7.56C0.792938 6.856 0.564938 5.988 0.564938 4.956C0.564938 3.916 0.840938 3.032 1.39294 2.304C1.94494 1.568 2.69694 1.008 3.64894 0.623999C4.60094 0.231999 5.67694 0.0359988 6.87694 0.0359988C8.13294 0.0359988 9.24094 0.231999 10.2009 0.623999C11.1689 1.008 11.9249 1.588 12.4689 2.364C13.0209 3.132 13.2969 4.092 13.2969 5.244C13.2969 5.372 13.2969 5.492 13.2969 5.604C13.2969 5.708 13.2969 5.828 13.2969 5.964H9.57694C9.57694 5.876 9.57694 5.784 9.57694 5.688C9.57694 5.592 9.57694 5.5 9.57694 5.412C9.57694 4.636 9.36094 4.04 8.92894 3.624C8.50494 3.208 7.83694 3 6.92494 3C6.04494 3 5.36094 3.16 4.87294 3.48C4.39294 3.8 4.15294 4.292 4.15294 4.956C4.15294 5.436 4.32494 5.844 4.66894 6.18C5.02094 6.516 5.50094 6.816 6.10894 7.08C6.71694 7.344 7.40894 7.608 8.18494 7.872C9.24094 8.24 10.1609 8.648 10.9449 9.096C11.7369 9.536 12.3489 10.092 12.7809 10.764C13.2129 11.428 13.4289 12.276 13.4289 13.308C13.4289 14.364 13.1569 15.264 12.6129 16.008C12.0689 16.752 11.3049 17.32 10.3209 17.712C9.34494 18.096 8.21294 18.288 6.92494 18.288ZM29.1501 11.604C29.1501 13.844 28.5581 15.52 27.3741 16.632C26.1901 17.736 24.5701 18.288 22.5141 18.288C20.4501 18.288 18.8261 17.736 17.6421 16.632C16.4661 15.52 15.8781 13.844 15.8781 11.604C15.8781 11.3 15.8781 10.976 15.8781 10.632C15.8781 10.288 15.8781 9.928 15.8781 9.552V0.3H19.6101V10.08C19.6101 10.384 19.6101 10.668 19.6101 10.932C19.6101 11.196 19.6101 11.44 19.6101 11.664C19.6101 12.912 19.8381 13.832 20.2941 14.424C20.7501 15.008 21.4901 15.3 22.5141 15.3C23.5301 15.3 24.2701 15.008 24.7341 14.424C25.1981 13.832 25.4301 12.912 25.4301 11.664V0.3H29.1501V11.604ZM32.0968 18V0.3H39.2728C41.1288 0.3 42.5128 0.724 43.4248 1.572C44.3448 2.412 44.8048 3.624 44.8048 5.208C44.8048 6.12 44.6288 6.9 44.2768 7.548C43.9328 8.188 43.5048 8.684 42.9928 9.036C42.4888 9.388 42.0008 9.584 41.5288 9.624C42.0168 9.656 42.4768 9.78 42.9088 9.996C43.3488 10.204 43.7088 10.536 43.9888 10.992C44.2688 11.448 44.4088 12.06 44.4088 12.828C44.4088 13.396 44.4088 13.956 44.4088 14.508C44.4088 15.06 44.4088 15.624 44.4088 16.2C44.4088 16.592 44.4368 16.956 44.4928 17.292C44.5568 17.62 44.6488 17.856 44.7688 18H41.0368C40.9328 17.84 40.8488 17.6 40.7848 17.28C40.7208 16.952 40.6888 16.592 40.6888 16.2C40.6888 15.688 40.6888 15.2 40.6888 14.736C40.6888 14.264 40.6888 13.772 40.6888 13.26C40.6888 12.564 40.5088 12.028 40.1488 11.652C39.7888 11.268 39.2128 11.076 38.4208 11.076H34.7488L35.7448 9.888V18H32.0968ZM35.7448 9.552L34.7488 8.196H38.4688C38.9488 8.196 39.3768 8.088 39.7528 7.872C40.1288 7.656 40.4248 7.348 40.6408 6.948C40.8648 6.548 40.9768 6.08 40.9768 5.544C40.9768 4.792 40.7488 4.208 40.2928 3.792C39.8448 3.376 39.2128 3.168 38.3968 3.168H34.6648L35.7448 1.956V9.552ZM50.2509 18.036L45.8709 0.3H49.9869L53.1069 15.732H52.9389L56.0349 0.3H60.1629L55.8189 18.036H50.2509ZM64.2546 3.18L65.9346 1.404V8.736L65.0946 7.68H71.6226V10.56H65.0946L65.9346 9.504V16.896L64.2546 15.12H72.9546V18H62.1906V0.3H72.9546V3.18H64.2546ZM88.5613 0.3L83.4253 11.904V18H79.7173V11.904L74.6053 0.3H78.5413L82.3213 10.044H80.8333L84.6133 0.3H88.5613ZM94.1946 21.496V9.504H96.6826V21.496H94.1946ZM99.3066 18.192C98.6346 18.192 98.0186 18.0133 97.4586 17.656C96.8986 17.2933 96.4506 16.808 96.1146 16.2C95.7786 15.5867 95.6106 14.8987 95.6106 14.136C95.6106 14.1147 95.6106 14.096 95.6106 14.08C95.6106 14.0587 95.6106 14.0347 95.6106 14.008L96.6826 13.984C96.6826 14 96.6826 14.016 96.6826 14.032C96.6826 14.048 96.6826 14.064 96.6826 14.08C96.6826 14.4747 96.7786 14.8213 96.9706 15.12C97.1626 15.4133 97.4106 15.64 97.7146 15.8C98.0186 15.96 98.3359 16.04 98.6666 16.04C99.2106 16.04 99.6826 15.8533 100.083 15.48C100.488 15.1013 100.691 14.512 100.691 13.712C100.691 12.912 100.491 12.3307 100.091 11.968C99.6906 11.6 99.2159 11.416 98.6666 11.416C98.3359 11.416 98.0186 11.496 97.7146 11.656C97.4106 11.8107 97.1626 12.032 96.9706 12.32C96.7786 12.608 96.6826 12.952 96.6826 13.352L95.6106 13.288C95.6106 12.52 95.7786 11.8427 96.1146 11.256C96.4506 10.664 96.8986 10.1973 97.4586 9.856C98.0186 9.51467 98.6346 9.344 99.3066 9.344C99.9946 9.344 100.637 9.51467 101.235 9.856C101.832 10.192 102.315 10.6853 102.683 11.336C103.056 11.9867 103.243 12.7787 103.243 13.712C103.243 14.688 103.061 15.5093 102.699 16.176C102.336 16.8427 101.856 17.3467 101.259 17.688C100.661 18.024 100.011 18.192 99.3066 18.192ZM107.356 5.496V18H104.908V5.496H107.356ZM112.351 18.16C111.749 18.16 111.253 18.064 110.863 17.872C110.474 17.6747 110.167 17.4107 109.943 17.08C109.719 16.7493 109.562 16.3813 109.471 15.976C109.381 15.5707 109.335 15.16 109.335 14.744C109.335 14.552 109.335 14.3493 109.335 14.136C109.335 13.9227 109.335 13.704 109.335 13.48V9.504H111.815V13.088C111.815 13.2693 111.815 13.4453 111.815 13.616C111.815 13.7867 111.815 13.944 111.815 14.088C111.815 14.4453 111.855 14.7733 111.935 15.072C112.015 15.3707 112.162 15.6107 112.375 15.792C112.594 15.9733 112.903 16.064 113.303 16.064C113.693 16.064 114.023 15.9547 114.295 15.736C114.567 15.512 114.775 15.2267 114.919 14.88C115.063 14.5333 115.135 14.176 115.135 13.808L115.831 14.376C115.831 14.9093 115.749 15.4053 115.583 15.864C115.423 16.3227 115.194 16.7253 114.895 17.072C114.597 17.4133 114.231 17.68 113.799 17.872C113.373 18.064 112.89 18.16 112.351 18.16ZM115.135 18V9.504H117.615V18H115.135ZM123.012 18.192C122.505 18.192 122.017 18.1333 121.548 18.016C121.078 17.8987 120.657 17.7253 120.284 17.496C119.916 17.2667 119.622 16.9813 119.404 16.64C119.19 16.2933 119.084 15.8907 119.084 15.432C119.084 15.4107 119.084 15.3867 119.084 15.36C119.084 15.328 119.084 15.304 119.084 15.288H121.548C121.548 15.304 121.548 15.3227 121.548 15.344C121.548 15.36 121.548 15.3787 121.548 15.4C121.548 15.7093 121.684 15.936 121.956 16.08C122.233 16.224 122.606 16.296 123.076 16.296C123.321 16.296 123.556 16.272 123.78 16.224C124.009 16.1707 124.196 16.088 124.34 15.976C124.489 15.8587 124.564 15.712 124.564 15.536C124.564 15.2533 124.406 15.0533 124.092 14.936C123.782 14.8187 123.284 14.7013 122.596 14.584C122.206 14.52 121.812 14.4293 121.412 14.312C121.012 14.1947 120.644 14.04 120.308 13.848C119.972 13.6507 119.702 13.4027 119.5 13.104C119.297 12.8 119.196 12.432 119.196 12C119.196 11.424 119.369 10.9387 119.716 10.544C120.068 10.1493 120.534 9.85067 121.116 9.648C121.697 9.44533 122.337 9.344 123.036 9.344C123.702 9.344 124.324 9.456 124.9 9.68C125.476 9.89867 125.942 10.216 126.3 10.632C126.657 11.0427 126.836 11.5387 126.836 12.12C126.836 12.1307 126.836 12.1467 126.836 12.168C126.836 12.1893 126.836 12.2107 126.836 12.232H124.396C124.396 12.2107 124.396 12.192 124.396 12.176C124.396 12.16 124.396 12.1467 124.396 12.136C124.396 11.9227 124.326 11.7493 124.188 11.616C124.054 11.4827 123.884 11.384 123.676 11.32C123.468 11.2507 123.252 11.216 123.028 11.216C122.825 11.216 122.614 11.24 122.396 11.288C122.182 11.3307 122.001 11.4053 121.852 11.512C121.702 11.6133 121.628 11.7573 121.628 11.944C121.628 12.1253 121.708 12.2747 121.868 12.392C122.028 12.504 122.252 12.5973 122.54 12.672C122.828 12.7413 123.161 12.808 123.54 12.872C123.897 12.9307 124.273 13.0133 124.668 13.12C125.068 13.2213 125.441 13.368 125.788 13.56C126.14 13.7467 126.422 13.9947 126.636 14.304C126.854 14.608 126.964 14.9947 126.964 15.464C126.964 15.9493 126.852 16.3653 126.628 16.712C126.404 17.0587 126.1 17.3413 125.716 17.56C125.337 17.7733 124.913 17.9307 124.444 18.032C123.98 18.1387 123.502 18.192 123.012 18.192Z" fill="black"/>
<path d="M-0.539062 19.5H89.2213V20.1H-0.539062V19.5Z" fill="black"/>
<path d="M89.2266 19H127.54V19.4H89.2266V19Z" fill="black"/>
</svg>
